<svg width="128" height="128" viewBox="0 0 128 128" fill="none" xmlns="http://www.w3.org/2000/svg">
<rect width="128" height="128" rx="35" fill="#EFF1F5"/>
<path d="M102.455 26H25.5455C20.8455 26 17 29.8455 17 34.5455V85.8182C17 90.5182 20.8455 94.3636 25.5455 94.3636H46.9091V98.6364C46.9091 100.986 48.8318 102.909 51.1818 102.909H76.8182C79.1682 102.909 81.0909 100.986 81.0909 98.6364V94.3636H102.455C107.155 94.3636 110.957 90.5182 110.957 85.8182L111 34.5455C111 29.8455 107.155 26 102.455 26ZM98.1818 85.8182H29.8182C27.4682 85.8182 25.5455 83.8955 25.5455 81.5455V38.8182C25.5455 36.4682 27.4682 34.5455 29.8182 34.5455H98.1818C100.532 34.5455 102.455 36.4682 102.455 38.8182V81.5455C102.455 83.8955 100.532 85.8182 98.1818 85.8182Z" fill="#4C4F69"/>
<path d="M52.826 72.7623C56.9915 72.7623 60.3683 69.3855 60.3683 65.22C60.3683 61.0545 56.9915 57.6777 52.826 57.6777C48.6605 57.6777 45.2837 61.0545 45.2837 65.22C45.2837 69.3855 48.6605 72.7623 52.826 72.7623Z" fill="#FE640B"/>
<path d="M70.739 78.419C73.3424 78.419 75.4529 76.3085 75.4529 73.7051C75.4529 71.1017 73.3424 68.9911 70.739 68.9911C68.1355 68.9911 66.025 71.1017 66.025 73.7051C66.025 76.3085 68.1355 78.419 70.739 78.419Z" fill="#D20F39"/>
<path d="M71.6818 63.3344C77.93 63.3344 82.9952 58.2692 82.9952 52.021C82.9952 45.7727 77.93 40.7075 71.6818 40.7075C65.4335 40.7075 60.3683 45.7727 60.3683 52.021C60.3683 58.2692 65.4335 63.3344 71.6818 63.3344Z" fill="#40A02B"/>
</svg>
