<svg width="1160" height="328" viewBox="0 0 1160 328" fill="none" xmlns="http://www.w3.org/2000/svg">
<g filter="url(#filter0_d_117_35)">
<rect x="4" width="1152" height="320" rx="45" fill="#DCE0E8"/>
</g>
<path d="M316.56 197.68L290.94 140.7C290.52 139.627 290.053 138.46 289.54 137.2C289.073 135.94 288.63 134.75 288.21 133.63C288.303 134.563 288.373 135.73 288.42 137.13C288.467 138.483 288.49 139.673 288.49 140.7V196H272.32V98H288.21L314.32 157.08C314.787 158.107 315.207 159.133 315.58 160.16C316 161.187 316.397 162.26 316.77 163.38C317.143 162.307 317.517 161.257 317.89 160.23C318.31 159.157 318.753 158.107 319.22 157.08L345.54 98H360.73V196H344.56V140.7C344.56 139.58 344.583 138.32 344.63 136.92C344.677 135.473 344.723 134.353 344.77 133.56C344.35 134.587 343.86 135.777 343.3 137.13C342.787 138.483 342.32 139.673 341.9 140.7L316.56 197.68ZM416.186 197.68C410.213 197.68 404.776 196.653 399.876 194.6C395.023 192.5 390.87 189.607 387.416 185.92C384.01 182.187 381.466 177.847 379.786 172.9L394.556 167.37C396.61 171.85 399.55 175.49 403.376 178.29C407.203 181.043 411.613 182.42 416.606 182.42C421.833 182.42 426.033 181.253 429.206 178.92C432.38 176.587 433.966 173.18 433.966 168.7C433.966 165.62 433.033 163.053 431.166 161C429.3 158.9 426.803 157.127 423.676 155.68C420.55 154.187 417.12 152.787 413.386 151.48C409.886 150.22 406.34 148.843 402.746 147.35C399.153 145.857 395.886 144.037 392.946 141.89C390.006 139.697 387.626 137.013 385.806 133.84C384.033 130.62 383.146 126.7 383.146 122.08C383.146 117.413 384.406 113.143 386.926 109.27C389.446 105.35 393.086 102.223 397.846 99.89C402.606 97.51 408.346 96.32 415.066 96.32C420.62 96.32 425.52 97.23 429.766 99.05C434.013 100.823 437.513 103.273 440.266 106.4C443.02 109.48 444.956 112.957 446.076 116.83L431.516 121.66C430.256 118.813 428.203 116.41 425.356 114.45C422.556 112.443 418.8 111.44 414.086 111.44C409.513 111.44 405.943 112.397 403.376 114.31C400.81 116.177 399.526 118.813 399.526 122.22C399.526 124.647 400.39 126.7 402.116 128.38C403.843 130.013 406.153 131.46 409.046 132.72C411.986 133.98 415.206 135.24 418.706 136.5C422.44 137.853 426.15 139.347 429.836 140.98C433.57 142.613 436.976 144.62 440.056 147C443.183 149.38 445.656 152.32 447.476 155.82C449.343 159.32 450.276 163.59 450.276 168.63C450.276 174.79 448.783 180.04 445.796 184.38C442.81 188.673 438.726 191.963 433.546 194.25C428.413 196.537 422.626 197.68 416.186 197.68ZM473.544 223.16L484.394 194.6L457.724 124.46H473.754L490.064 168.56C490.53 169.68 490.95 170.8 491.324 171.92C491.697 173.04 492.024 174.207 492.304 175.42C492.677 174.207 493.05 173.04 493.424 171.92C493.797 170.8 494.17 169.68 494.544 168.56L510.994 124.46H527.164L489.644 223.16H473.544ZM562.392 197.68C557.026 197.68 551.869 196.537 546.922 194.25C541.976 191.917 538.009 188.813 535.022 184.94L545.522 175.98C547.996 178.547 550.772 180.577 553.852 182.07C556.932 183.563 559.942 184.31 562.882 184.31C566.616 184.31 569.509 183.657 571.562 182.35C573.616 180.997 574.642 179.107 574.642 176.68C574.642 175.187 574.176 173.833 573.242 172.62C572.309 171.36 570.676 170.123 568.342 168.91C566.009 167.697 562.789 166.32 558.682 164.78C550.656 161.84 544.962 158.667 541.602 155.26C538.242 151.807 536.562 147.49 536.562 142.31C536.562 136.477 538.896 131.763 543.562 128.17C548.229 124.577 554.296 122.78 561.762 122.78C566.849 122.78 571.539 123.76 575.832 125.72C580.172 127.633 583.906 130.41 587.032 134.05L576.602 142.66C572.356 138.32 567.316 136.15 561.482 136.15C558.356 136.15 555.859 136.757 553.992 137.97C552.126 139.137 551.192 140.7 551.192 142.66C551.192 144.62 552.266 146.37 554.412 147.91C556.606 149.403 560.619 151.153 566.452 153.16C571.772 154.933 576.112 156.917 579.472 159.11C582.879 161.303 585.352 163.823 586.892 166.67C588.479 169.517 589.272 172.807 589.272 176.54C589.272 183.12 586.869 188.3 582.062 192.08C577.302 195.813 570.746 197.68 562.392 197.68ZM653.025 197.68L627.405 140.7C626.985 139.627 626.518 138.46 626.005 137.2C625.538 135.94 625.095 134.75 624.675 133.63C624.768 134.563 624.838 135.73 624.885 137.13C624.932 138.483 624.955 139.673 624.955 140.7V196H608.785V98H624.675L650.785 157.08C651.252 158.107 651.672 159.133 652.045 160.16C652.465 161.187 652.862 162.26 653.235 163.38C653.608 162.307 653.982 161.257 654.355 160.23C654.775 159.157 655.218 158.107 655.685 157.08L682.005 98H697.195V196H681.025V140.7C681.025 139.58 681.048 138.32 681.095 136.92C681.142 135.473 681.188 134.353 681.235 133.56C680.815 134.587 680.325 135.777 679.765 137.13C679.252 138.483 678.785 139.673 678.365 140.7L653.025 197.68ZM749.148 197.68C739.161 197.68 731.298 194.343 725.558 187.67C719.818 180.997 716.948 171.873 716.948 160.3C716.948 152.6 718.255 145.95 720.868 140.35C723.481 134.75 727.191 130.433 731.998 127.4C736.851 124.32 742.568 122.78 749.148 122.78C755.775 122.78 761.491 124.297 766.298 127.33C771.105 130.363 774.815 134.68 777.428 140.28C780.041 145.88 781.348 152.53 781.348 160.23C781.348 167.93 780.041 174.58 777.428 180.18C774.815 185.78 771.105 190.097 766.298 193.13C761.491 196.163 755.775 197.68 749.148 197.68ZM749.148 182.77C754.328 182.77 758.365 180.787 761.258 176.82C764.151 172.853 765.598 167.323 765.598 160.23C765.598 153.09 764.128 147.537 761.188 143.57C758.295 139.603 754.281 137.62 749.148 137.62C744.015 137.62 739.978 139.627 737.038 143.64C734.145 147.607 732.698 153.16 732.698 160.3C732.698 167.347 734.145 172.853 737.038 176.82C739.978 180.787 744.015 182.77 749.148 182.77ZM798.661 196V124.46H814.341V131.46C816.581 128.52 819.264 126.35 822.391 124.95C825.564 123.503 829.181 122.78 833.241 122.78C841.501 122.78 847.778 125.3 852.071 130.34C856.364 135.38 858.511 142.777 858.511 152.53V196H842.761V155.4C842.761 149.427 841.618 144.97 839.331 142.03C837.091 139.09 833.684 137.62 829.111 137.62C824.164 137.62 820.454 139.067 817.981 141.96C815.554 144.853 814.341 149.24 814.341 155.12V196H798.661ZM880.285 196V124.46H895.965V196H880.285ZM888.055 114.1C885.489 114.1 883.295 113.19 881.475 111.37C879.655 109.55 878.745 107.357 878.745 104.79C878.745 102.177 879.632 99.96 881.405 98.14C883.225 96.2733 885.442 95.34 888.055 95.34C890.762 95.34 893.002 96.25 894.775 98.07C896.595 99.89 897.505 102.13 897.505 104.79C897.505 107.403 896.595 109.62 894.775 111.44C892.955 113.213 890.715 114.1 888.055 114.1ZM938.867 197.68C933.453 197.68 929.37 196.14 926.617 193.06C923.863 189.98 922.487 185.477 922.487 179.55V138.25H911.637V124.46H922.487V102.41L938.167 94.92V124.46H954.827V138.25H938.167V176.12C938.167 178.687 938.657 180.6 939.637 181.86C940.663 183.073 942.227 183.68 944.327 183.68C947.733 183.68 951.443 182.56 955.457 180.32L953.707 194.46C951.513 195.533 949.203 196.327 946.777 196.84C944.35 197.4 941.713 197.68 938.867 197.68ZM1000.03 197.68C990.04 197.68 982.177 194.343 976.437 187.67C970.697 180.997 967.827 171.873 967.827 160.3C967.827 152.6 969.134 145.95 971.747 140.35C974.36 134.75 978.07 130.433 982.877 127.4C987.73 124.32 993.447 122.78 1000.03 122.78C1006.65 122.78 1012.37 124.297 1017.18 127.33C1021.98 130.363 1025.69 134.68 1028.31 140.28C1030.92 145.88 1032.23 152.53 1032.23 160.23C1032.23 167.93 1030.92 174.58 1028.31 180.18C1025.69 185.78 1021.98 190.097 1017.18 193.13C1012.37 196.163 1006.65 197.68 1000.03 197.68ZM1000.03 182.77C1005.21 182.77 1009.24 180.787 1012.14 176.82C1015.03 172.853 1016.48 167.323 1016.48 160.23C1016.48 153.09 1015.01 147.537 1012.07 143.57C1009.17 139.603 1005.16 137.62 1000.03 137.62C994.894 137.62 990.857 139.627 987.917 143.64C985.024 147.607 983.577 153.16 983.577 160.3C983.577 167.347 985.024 172.853 987.917 176.82C990.857 180.787 994.894 182.77 1000.03 182.77ZM1049.54 196V124.46H1065.22V132.72C1066.62 129.64 1068.72 127.213 1071.52 125.44C1074.37 123.667 1077.49 122.78 1080.9 122.78C1085.71 122.78 1089.77 124.343 1093.08 127.47L1090.91 141.96C1089.14 140.56 1087.36 139.557 1085.59 138.95C1083.82 138.343 1081.86 138.04 1079.71 138.04C1076.72 138.04 1074.16 138.787 1072.01 140.28C1069.86 141.773 1068.18 143.897 1066.97 146.65C1065.8 149.403 1065.22 152.67 1065.22 156.45V196H1049.54Z" fill="#4C4F69"/>
<path d="M41.584 283L50.728 257.8H54.148L63.31 283H59.512L57.406 277.114H47.524L45.454 283H41.584ZM48.64 273.856H56.236L53.23 265.378C53.146 265.15 53.056 264.892 52.96 264.604C52.864 264.304 52.768 264.01 52.672 263.722C52.576 263.434 52.504 263.182 52.456 262.966C52.396 263.182 52.318 263.434 52.222 263.722C52.138 264.01 52.048 264.304 51.952 264.604C51.856 264.892 51.766 265.15 51.682 265.378L48.64 273.856ZM76.4298 283.432C74.5218 283.432 72.8838 283.072 71.5158 282.352C70.1478 281.62 69.0318 280.636 68.1678 279.4C67.3038 278.152 66.6678 276.754 66.2598 275.206C65.8518 273.646 65.6478 272.044 65.6478 270.4C65.6478 268.792 65.8638 267.214 66.2958 265.666C66.7278 264.118 67.3818 262.72 68.2578 261.472C69.1338 260.224 70.2498 259.228 71.6058 258.484C72.9618 257.74 74.5698 257.368 76.4298 257.368C78.0138 257.368 79.3338 257.596 80.3898 258.052C81.4578 258.496 82.3398 259.078 83.0358 259.798C83.7438 260.518 84.3438 261.28 84.8358 262.084L81.5958 263.938C81.0318 263.11 80.3538 262.384 79.5618 261.76C78.7818 261.136 77.7378 260.824 76.4298 260.824C75.1098 260.824 73.9998 261.112 73.0998 261.688C72.1998 262.264 71.4798 263.026 70.9398 263.974C70.3998 264.922 70.0098 265.96 69.7698 267.088C69.5418 268.204 69.4278 269.308 69.4278 270.4C69.4278 271.624 69.5598 272.806 69.8238 273.946C70.0878 275.086 70.5018 276.112 71.0658 277.024C71.6298 277.924 72.3558 278.638 73.2438 279.166C74.1318 279.694 75.1938 279.958 76.4298 279.958C77.4738 279.958 78.3858 279.73 79.1658 279.274C79.9578 278.818 80.5758 278.2 81.0198 277.42C81.4638 276.628 81.6858 275.716 81.6858 274.684V273.856H77.2218V270.472H85.4838V273.694C85.4838 275.806 85.0818 277.588 84.2778 279.04C83.4858 280.48 82.4058 281.572 81.0378 282.316C79.6698 283.06 78.1338 283.432 76.4298 283.432ZM91.3714 283V257.8H107.031V261.238H95.0074V268.258H102.657V271.696H95.0074V279.526H107.805V283H91.3714ZM113.028 283V257.8H116.592L127.338 274.702C127.506 274.966 127.68 275.26 127.86 275.584C128.04 275.908 128.214 276.238 128.382 276.574C128.37 276.274 128.352 275.956 128.328 275.62C128.316 275.284 128.31 274.984 128.31 274.72V257.8H131.946V283H128.544L117.6 266.026C117.456 265.774 117.288 265.486 117.096 265.162C116.916 264.838 116.742 264.526 116.574 264.226C116.61 264.502 116.634 264.802 116.646 265.126C116.658 265.45 116.664 265.75 116.664 266.026V283H113.028ZM143.987 283V261.292H136.931V257.8H154.697V261.292H147.623V283H143.987ZM156.213 288.076L154.899 287.266C155.115 287.074 155.373 286.786 155.673 286.402C155.985 286.018 156.267 285.574 156.519 285.07C156.771 284.566 156.927 284.044 156.987 283.504C156.327 283.408 155.763 283.138 155.295 282.694C154.839 282.238 154.611 281.662 154.611 280.966C154.611 280.15 154.869 279.502 155.385 279.022C155.913 278.53 156.519 278.284 157.203 278.284C157.959 278.284 158.619 278.554 159.183 279.094C159.759 279.634 160.047 280.444 160.047 281.524C160.047 282.46 159.873 283.342 159.525 284.17C159.177 285.01 158.709 285.76 158.121 286.42C157.545 287.092 156.909 287.644 156.213 288.076ZM181.058 283.432C179.558 283.432 178.196 283.18 176.972 282.676C175.76 282.16 174.722 281.452 173.858 280.552C173.006 279.652 172.382 278.614 171.986 277.438L175.37 276.196C175.886 277.324 176.642 278.242 177.638 278.95C178.646 279.646 179.816 279.994 181.148 279.994C182.576 279.994 183.716 279.664 184.568 279.004C185.432 278.344 185.864 277.378 185.864 276.106C185.864 275.23 185.606 274.492 185.09 273.892C184.586 273.292 183.914 272.788 183.074 272.38C182.246 271.96 181.346 271.576 180.374 271.228C179.486 270.904 178.592 270.55 177.692 270.166C176.792 269.77 175.976 269.296 175.244 268.744C174.512 268.192 173.918 267.514 173.462 266.71C173.018 265.906 172.796 264.934 172.796 263.794C172.796 262.63 173.108 261.562 173.732 260.59C174.368 259.618 175.28 258.838 176.468 258.25C177.656 257.662 179.09 257.368 180.77 257.368C182.15 257.368 183.362 257.584 184.406 258.016C185.462 258.436 186.332 259.018 187.016 259.762C187.7 260.494 188.174 261.328 188.438 262.264L185.126 263.362C184.814 262.642 184.274 262.03 183.506 261.526C182.75 261.022 181.76 260.77 180.536 260.77C179.288 260.77 178.304 261.04 177.584 261.58C176.876 262.12 176.522 262.864 176.522 263.812C176.522 264.508 176.762 265.096 177.242 265.576C177.722 266.044 178.352 266.458 179.132 266.818C179.924 267.178 180.782 267.526 181.706 267.862C182.63 268.198 183.554 268.582 184.478 269.014C185.402 269.434 186.248 269.95 187.016 270.562C187.796 271.174 188.42 271.93 188.888 272.83C189.356 273.718 189.59 274.792 189.59 276.052C189.59 277.624 189.212 278.962 188.456 280.066C187.712 281.158 186.698 281.992 185.414 282.568C184.13 283.144 182.678 283.432 181.058 283.432ZM195.153 283V257.8H210.813V261.238H198.789V268.258H206.439V271.696H198.789V279.526H211.587V283H195.153ZM216.809 283V257.8H227.249C229.301 257.8 230.915 258.154 232.091 258.862C233.267 259.57 234.101 260.488 234.593 261.616C235.097 262.744 235.349 263.932 235.349 265.18C235.349 266.152 235.157 267.124 234.773 268.096C234.389 269.068 233.783 269.926 232.955 270.67C232.139 271.414 231.077 271.948 229.769 272.272L235.025 283H230.921L225.881 272.614H220.445V283H216.809ZM220.445 269.212H227.321C228.401 269.212 229.253 269.02 229.877 268.636C230.513 268.24 230.963 267.742 231.227 267.142C231.503 266.53 231.641 265.894 231.641 265.234C231.641 264.634 231.515 264.028 231.263 263.416C231.011 262.792 230.573 262.27 229.949 261.85C229.325 261.418 228.449 261.202 227.321 261.202H220.445V269.212ZM246.89 283L238.142 257.8H242.048L247.934 275.512C248.042 275.812 248.156 276.16 248.276 276.556C248.396 276.94 248.504 277.33 248.6 277.726C248.684 277.342 248.78 276.964 248.888 276.592C249.008 276.208 249.122 275.848 249.23 275.512L254.99 257.8H258.878L250.166 283H246.89ZM263.004 283V257.8H278.664V261.238H266.64V268.258H274.29V271.696H266.64V279.526H279.438V283H263.004ZM284.661 283V257.8H295.101C297.153 257.8 298.767 258.154 299.943 258.862C301.119 259.57 301.953 260.488 302.445 261.616C302.949 262.744 303.201 263.932 303.201 265.18C303.201 266.152 303.009 267.124 302.625 268.096C302.241 269.068 301.635 269.926 300.807 270.67C299.991 271.414 298.929 271.948 297.621 272.272L302.877 283H298.773L293.733 272.614H288.297V283H284.661ZM288.297 269.212H295.173C296.253 269.212 297.105 269.02 297.729 268.636C298.365 268.24 298.815 267.742 299.079 267.142C299.355 266.53 299.492 265.894 299.492 265.234C299.492 264.634 299.367 264.028 299.115 263.416C298.863 262.792 298.425 262.27 297.801 261.85C297.177 261.418 296.301 261.202 295.173 261.202H288.297V269.212ZM314.326 283L323.47 257.8H326.89L336.052 283H332.254L330.148 277.114H320.266L318.196 283H314.326ZM321.382 273.856H328.978L325.972 265.378C325.888 265.15 325.798 264.892 325.702 264.604C325.606 264.304 325.51 264.01 325.414 263.722C325.318 263.434 325.246 263.182 325.198 262.966C325.138 263.182 325.06 263.434 324.964 263.722C324.88 264.01 324.79 264.304 324.694 264.604C324.598 264.892 324.508 265.15 324.424 265.378L321.382 273.856ZM340.383 283V257.8H343.947L354.693 274.702C354.861 274.966 355.035 275.26 355.215 275.584C355.395 275.908 355.569 276.238 355.737 276.574C355.725 276.274 355.707 275.956 355.683 275.62C355.671 275.284 355.665 274.984 355.665 274.72V257.8H359.301V283H355.899L344.955 266.026C344.811 265.774 344.643 265.486 344.451 265.162C344.271 264.838 344.097 264.526 343.929 264.226C343.965 264.502 343.989 264.802 344.001 265.126C344.013 265.45 344.019 265.75 344.019 266.026V283H340.383ZM365.907 283V257.8H373.323C375.495 257.8 377.331 258.16 378.831 258.88C380.343 259.6 381.561 260.566 382.485 261.778C383.409 262.978 384.081 264.328 384.501 265.828C384.933 267.316 385.149 268.84 385.149 270.4C385.149 271.852 384.951 273.316 384.555 274.792C384.159 276.268 383.505 277.63 382.593 278.878C381.693 280.114 380.469 281.11 378.921 281.866C377.385 282.622 375.471 283 373.179 283H365.907ZM369.543 279.58H373.611C375.087 279.58 376.317 279.31 377.301 278.77C378.297 278.23 379.095 277.516 379.695 276.628C380.295 275.728 380.721 274.738 380.973 273.658C381.237 272.566 381.369 271.48 381.369 270.4C381.369 269.248 381.231 268.126 380.955 267.034C380.679 265.93 380.241 264.94 379.641 264.064C379.041 263.188 378.279 262.492 377.355 261.976C376.431 261.448 375.315 261.184 374.007 261.184H369.543V279.58ZM409.184 283.432C407.276 283.432 405.638 283.072 404.27 282.352C402.902 281.62 401.786 280.636 400.922 279.4C400.058 278.152 399.422 276.754 399.014 275.206C398.606 273.646 398.402 272.044 398.402 270.4C398.402 268.792 398.618 267.214 399.05 265.666C399.482 264.118 400.136 262.72 401.012 261.472C401.888 260.224 403.004 259.228 404.36 258.484C405.716 257.74 407.324 257.368 409.184 257.368C410.768 257.368 412.088 257.596 413.144 258.052C414.212 258.496 415.094 259.078 415.79 259.798C416.498 260.518 417.098 261.28 417.59 262.084L414.35 263.938C413.786 263.11 413.108 262.384 412.316 261.76C411.536 261.136 410.492 260.824 409.184 260.824C407.864 260.824 406.754 261.112 405.854 261.688C404.954 262.264 404.234 263.026 403.694 263.974C403.154 264.922 402.764 265.96 402.524 267.088C402.296 268.204 402.182 269.308 402.182 270.4C402.182 271.624 402.314 272.806 402.578 273.946C402.842 275.086 403.256 276.112 403.82 277.024C404.384 277.924 405.11 278.638 405.998 279.166C406.886 279.694 407.948 279.958 409.184 279.958C410.228 279.958 411.14 279.73 411.92 279.274C412.712 278.818 413.33 278.2 413.774 277.42C414.218 276.628 414.44 275.716 414.44 274.684V273.856H409.976V270.472H418.238V273.694C418.238 275.806 417.836 277.588 417.032 279.04C416.24 280.48 415.16 281.572 413.792 282.316C412.424 283.06 410.888 283.432 409.184 283.432ZM433.305 283.432C431.229 283.432 429.495 283.048 428.103 282.28C426.723 281.5 425.685 280.372 424.989 278.896C424.293 277.408 423.945 275.602 423.945 273.478V257.8H427.581V273.478C427.581 275.578 428.031 277.186 428.931 278.302C429.831 279.418 431.289 279.976 433.305 279.976C434.589 279.976 435.657 279.742 436.509 279.274C437.361 278.806 437.997 278.098 438.417 277.15C438.837 276.19 439.047 274.966 439.047 273.478V257.8H442.683V273.478C442.683 275.158 442.467 276.622 442.035 277.87C441.615 279.118 440.997 280.156 440.181 280.984C439.377 281.812 438.393 282.43 437.229 282.838C436.065 283.234 434.757 283.432 433.305 283.432ZM449.192 283V257.8H452.828V283H449.192ZM464.971 283L474.115 257.8H477.535L486.697 283H482.899L480.793 277.114H470.911L468.841 283H464.971ZM472.027 273.856H479.623L476.617 265.378C476.533 265.15 476.443 264.892 476.347 264.604C476.251 264.304 476.155 264.01 476.059 263.722C475.963 263.434 475.891 263.182 475.843 262.966C475.783 263.182 475.705 263.434 475.609 263.722C475.525 264.01 475.435 264.304 475.339 264.604C475.243 264.892 475.153 265.15 475.069 265.378L472.027 273.856ZM491.028 283V257.8H501C503.076 257.8 504.714 258.178 505.914 258.934C507.126 259.678 507.99 260.638 508.506 261.814C509.022 262.99 509.28 264.208 509.28 265.468C509.28 266.356 509.13 267.25 508.83 268.15C508.53 269.038 508.05 269.86 507.39 270.616C506.73 271.372 505.872 271.978 504.816 272.434C503.772 272.89 502.5 273.118 501 273.118H494.664V283H491.028ZM494.664 269.716H501.216C502.296 269.716 503.154 269.5 503.79 269.068C504.438 268.636 504.9 268.096 505.176 267.448C505.452 266.8 505.59 266.14 505.59 265.468C505.59 264.868 505.464 264.238 505.212 263.578C504.972 262.906 504.534 262.342 503.898 261.886C503.262 261.43 502.368 261.202 501.216 261.202H494.664V269.716ZM513.844 283V257.8H523.816C525.892 257.8 527.53 258.178 528.73 258.934C529.942 259.678 530.806 260.638 531.322 261.814C531.838 262.99 532.096 264.208 532.096 265.468C532.096 266.356 531.946 267.25 531.646 268.15C531.346 269.038 530.866 269.86 530.206 270.616C529.546 271.372 528.688 271.978 527.632 272.434C526.588 272.89 525.316 273.118 523.816 273.118H517.48V283H513.844ZM517.48 269.716H524.032C525.112 269.716 525.97 269.5 526.606 269.068C527.254 268.636 527.716 268.096 527.992 267.448C528.268 266.8 528.406 266.14 528.406 265.468C528.406 264.868 528.28 264.238 528.028 263.578C527.788 262.906 527.35 262.342 526.714 261.886C526.078 261.43 525.184 261.202 524.032 261.202H517.48V269.716ZM545.274 283V257.8H560.97V261.238H548.91V268.258H556.794V271.696H548.91V283H545.274ZM575.42 283.432C573.428 283.432 571.742 283.054 570.362 282.298C568.982 281.53 567.872 280.516 567.032 279.256C566.192 277.984 565.58 276.58 565.196 275.044C564.812 273.508 564.62 271.96 564.62 270.4C564.62 268.84 564.812 267.292 565.196 265.756C565.58 264.22 566.192 262.822 567.032 261.562C567.872 260.29 568.982 259.276 570.362 258.52C571.742 257.752 573.428 257.368 575.42 257.368C577.412 257.368 579.098 257.752 580.478 258.52C581.858 259.276 582.968 260.29 583.808 261.562C584.648 262.822 585.254 264.22 585.626 265.756C586.01 267.292 586.202 268.84 586.202 270.4C586.202 271.96 586.01 273.508 585.626 275.044C585.254 276.58 584.648 277.984 583.808 279.256C582.968 280.516 581.858 281.53 580.478 282.298C579.098 283.054 577.412 283.432 575.42 283.432ZM575.42 279.976C576.716 279.976 577.808 279.682 578.696 279.094C579.596 278.506 580.322 277.738 580.874 276.79C581.426 275.842 581.822 274.81 582.062 273.694C582.302 272.566 582.422 271.468 582.422 270.4C582.422 269.236 582.302 268.09 582.062 266.962C581.822 265.822 581.426 264.79 580.874 263.866C580.334 262.93 579.614 262.186 578.714 261.634C577.826 261.07 576.728 260.788 575.42 260.788C574.112 260.788 573.008 261.082 572.108 261.67C571.22 262.258 570.5 263.032 569.948 263.992C569.408 264.94 569.012 265.978 568.76 267.106C568.52 268.222 568.4 269.32 568.4 270.4C568.4 271.552 568.52 272.698 568.76 273.838C569.012 274.966 569.408 275.998 569.948 276.934C570.5 277.858 571.22 278.596 572.108 279.148C573.008 279.7 574.112 279.976 575.42 279.976ZM591.68 283V257.8H602.12C604.172 257.8 605.786 258.154 606.962 258.862C608.138 259.57 608.972 260.488 609.464 261.616C609.968 262.744 610.22 263.932 610.22 265.18C610.22 266.152 610.028 267.124 609.644 268.096C609.26 269.068 608.654 269.926 607.826 270.67C607.01 271.414 605.948 271.948 604.64 272.272L609.896 283H605.792L600.752 272.614H595.316V283H591.68ZM595.316 269.212H602.192C603.272 269.212 604.124 269.02 604.748 268.636C605.384 268.24 605.834 267.742 606.098 267.142C606.374 266.53 606.512 265.894 606.512 265.234C606.512 264.634 606.386 264.028 606.134 263.416C605.882 262.792 605.444 262.27 604.82 261.85C604.196 261.418 603.32 261.202 602.192 261.202H595.316V269.212ZM635.711 283.432L628.997 268.15C628.853 267.802 628.697 267.424 628.529 267.016C628.373 266.608 628.235 266.224 628.115 265.864C628.139 266.152 628.157 266.518 628.169 266.962C628.181 267.406 628.187 267.802 628.187 268.15V283H624.551V257.8H628.079L635.099 273.874C635.207 274.138 635.315 274.408 635.423 274.684C635.531 274.96 635.639 275.242 635.747 275.53C635.843 275.254 635.939 274.978 636.035 274.702C636.143 274.426 636.257 274.15 636.377 273.874L643.415 257.8H646.871V283H643.217V268.15C643.217 267.79 643.223 267.382 643.235 266.926C643.259 266.47 643.271 266.11 643.271 265.846C643.151 266.182 643.001 266.572 642.821 267.016C642.653 267.448 642.497 267.838 642.353 268.186L635.711 283.432ZM663.17 283.432C661.178 283.432 659.492 283.054 658.112 282.298C656.732 281.53 655.622 280.516 654.782 279.256C653.942 277.984 653.33 276.58 652.946 275.044C652.562 273.508 652.37 271.96 652.37 270.4C652.37 268.84 652.562 267.292 652.946 265.756C653.33 264.22 653.942 262.822 654.782 261.562C655.622 260.29 656.732 259.276 658.112 258.52C659.492 257.752 661.178 257.368 663.17 257.368C665.162 257.368 666.848 257.752 668.228 258.52C669.608 259.276 670.718 260.29 671.558 261.562C672.398 262.822 673.004 264.22 673.376 265.756C673.76 267.292 673.952 268.84 673.952 270.4C673.952 271.96 673.76 273.508 673.376 275.044C673.004 276.58 672.398 277.984 671.558 279.256C670.718 280.516 669.608 281.53 668.228 282.298C666.848 283.054 665.162 283.432 663.17 283.432ZM663.17 279.976C664.466 279.976 665.558 279.682 666.446 279.094C667.346 278.506 668.072 277.738 668.624 276.79C669.176 275.842 669.572 274.81 669.812 273.694C670.052 272.566 670.172 271.468 670.172 270.4C670.172 269.236 670.052 268.09 669.812 266.962C669.572 265.822 669.176 264.79 668.624 263.866C668.084 262.93 667.364 262.186 666.464 261.634C665.576 261.07 664.478 260.788 663.17 260.788C661.862 260.788 660.758 261.082 659.858 261.67C658.97 262.258 658.25 263.032 657.698 263.992C657.158 264.94 656.762 265.978 656.51 267.106C656.27 268.222 656.15 269.32 656.15 270.4C656.15 271.552 656.27 272.698 656.51 273.838C656.762 274.966 657.158 275.998 657.698 276.934C658.25 277.858 658.97 278.596 659.858 279.148C660.758 279.7 661.862 279.976 663.17 279.976ZM679.43 283V257.8H682.994L693.74 274.702C693.908 274.966 694.082 275.26 694.262 275.584C694.442 275.908 694.616 276.238 694.784 276.574C694.772 276.274 694.754 275.956 694.73 275.62C694.718 275.284 694.712 274.984 694.712 274.72V257.8H698.348V283H694.946L684.002 266.026C683.858 265.774 683.69 265.486 683.498 265.162C683.318 264.838 683.144 264.526 682.976 264.226C683.012 264.502 683.036 264.802 683.048 265.126C683.06 265.45 683.066 265.75 683.066 266.026V283H679.43ZM704.953 283V257.8H708.589V283H704.953ZM720.62 283V261.292H713.564V257.8H731.33V261.292H724.256V283H720.62ZM744.768 283.432C742.776 283.432 741.09 283.054 739.71 282.298C738.33 281.53 737.22 280.516 736.38 279.256C735.54 277.984 734.928 276.58 734.544 275.044C734.16 273.508 733.968 271.96 733.968 270.4C733.968 268.84 734.16 267.292 734.544 265.756C734.928 264.22 735.54 262.822 736.38 261.562C737.22 260.29 738.33 259.276 739.71 258.52C741.09 257.752 742.776 257.368 744.768 257.368C746.76 257.368 748.446 257.752 749.826 258.52C751.206 259.276 752.316 260.29 753.156 261.562C753.996 262.822 754.602 264.22 754.974 265.756C755.358 267.292 755.55 268.84 755.55 270.4C755.55 271.96 755.358 273.508 754.974 275.044C754.602 276.58 753.996 277.984 753.156 279.256C752.316 280.516 751.206 281.53 749.826 282.298C748.446 283.054 746.76 283.432 744.768 283.432ZM744.768 279.976C746.064 279.976 747.156 279.682 748.044 279.094C748.944 278.506 749.67 277.738 750.222 276.79C750.774 275.842 751.17 274.81 751.41 273.694C751.65 272.566 751.77 271.468 751.77 270.4C751.77 269.236 751.65 268.09 751.41 266.962C751.17 265.822 750.774 264.79 750.222 263.866C749.682 262.93 748.962 262.186 748.062 261.634C747.174 261.07 746.076 260.788 744.768 260.788C743.46 260.788 742.356 261.082 741.456 261.67C740.568 262.258 739.848 263.032 739.296 263.992C738.756 264.94 738.36 265.978 738.108 267.106C737.868 268.222 737.748 269.32 737.748 270.4C737.748 271.552 737.868 272.698 738.108 273.838C738.36 274.966 738.756 275.998 739.296 276.934C739.848 277.858 740.568 278.596 741.456 279.148C742.356 279.7 743.46 279.976 744.768 279.976ZM761.028 283V257.8H771.468C773.52 257.8 775.134 258.154 776.31 258.862C777.486 259.57 778.32 260.488 778.812 261.616C779.316 262.744 779.568 263.932 779.568 265.18C779.568 266.152 779.376 267.124 778.992 268.096C778.608 269.068 778.002 269.926 777.174 270.67C776.358 271.414 775.296 271.948 773.988 272.272L779.244 283H775.14L770.1 272.614H764.664V283H761.028ZM764.664 269.212H771.54C772.62 269.212 773.472 269.02 774.096 268.636C774.732 268.24 775.182 267.742 775.446 267.142C775.722 266.53 775.86 265.894 775.86 265.234C775.86 264.634 775.734 264.028 775.482 263.416C775.23 262.792 774.792 262.27 774.168 261.85C773.544 261.418 772.668 261.202 771.54 261.202H764.664V269.212ZM785.25 283V257.8H788.886V283H785.25ZM795.481 283V257.8H799.045L809.791 274.702C809.959 274.966 810.133 275.26 810.313 275.584C810.493 275.908 810.667 276.238 810.835 276.574C810.823 276.274 810.805 275.956 810.781 275.62C810.769 275.284 810.763 274.984 810.763 274.72V257.8H814.399V283H810.997L800.053 266.026C799.909 265.774 799.741 265.486 799.549 265.162C799.369 264.838 799.195 264.526 799.027 264.226C799.063 264.502 799.087 264.802 799.099 265.126C799.111 265.45 799.117 265.75 799.117 266.026V283H795.481ZM830.848 283.432C828.94 283.432 827.302 283.072 825.934 282.352C824.566 281.62 823.45 280.636 822.586 279.4C821.722 278.152 821.086 276.754 820.678 275.206C820.27 273.646 820.066 272.044 820.066 270.4C820.066 268.792 820.282 267.214 820.714 265.666C821.146 264.118 821.8 262.72 822.676 261.472C823.552 260.224 824.668 259.228 826.024 258.484C827.38 257.74 828.988 257.368 830.848 257.368C832.432 257.368 833.752 257.596 834.808 258.052C835.876 258.496 836.758 259.078 837.454 259.798C838.162 260.518 838.762 261.28 839.254 262.084L836.014 263.938C835.45 263.11 834.772 262.384 833.98 261.76C833.2 261.136 832.156 260.824 830.848 260.824C829.528 260.824 828.418 261.112 827.518 261.688C826.618 262.264 825.898 263.026 825.358 263.974C824.818 264.922 824.428 265.96 824.188 267.088C823.96 268.204 823.846 269.308 823.846 270.4C823.846 271.624 823.978 272.806 824.242 273.946C824.506 275.086 824.92 276.112 825.484 277.024C826.048 277.924 826.774 278.638 827.662 279.166C828.55 279.694 829.612 279.958 830.848 279.958C831.892 279.958 832.804 279.73 833.584 279.274C834.376 278.818 834.994 278.2 835.438 277.42C835.882 276.628 836.104 275.716 836.104 274.684V273.856H831.64V270.472H839.902V273.694C839.902 275.806 839.5 277.588 838.696 279.04C837.904 280.48 836.824 281.572 835.456 282.316C834.088 283.06 832.552 283.432 830.848 283.432ZM857.473 283L852.271 257.8H856.069L859.039 273.478C859.135 273.97 859.219 274.414 859.291 274.81C859.363 275.194 859.417 275.572 859.453 275.944C859.525 275.572 859.609 275.188 859.705 274.792C859.813 274.384 859.933 273.952 860.065 273.496L864.223 257.8H867.211L871.423 273.46C871.543 273.916 871.645 274.33 871.729 274.702C871.813 275.062 871.879 275.416 871.927 275.764C871.987 275.416 872.047 275.062 872.107 274.702C872.179 274.33 872.263 273.922 872.359 273.478L875.581 257.8H879.325L873.853 283H870.793L866.221 266.494C866.101 266.062 865.993 265.672 865.897 265.324C865.813 264.964 865.735 264.604 865.663 264.244C865.603 264.604 865.531 264.958 865.447 265.306C865.363 265.642 865.261 266.032 865.141 266.476L860.605 283H857.473ZM894.077 283.432C892.085 283.432 890.399 283.054 889.019 282.298C887.639 281.53 886.529 280.516 885.689 279.256C884.849 277.984 884.237 276.58 883.853 275.044C883.469 273.508 883.277 271.96 883.277 270.4C883.277 268.84 883.469 267.292 883.853 265.756C884.237 264.22 884.849 262.822 885.689 261.562C886.529 260.29 887.639 259.276 889.019 258.52C890.399 257.752 892.085 257.368 894.077 257.368C896.069 257.368 897.755 257.752 899.135 258.52C900.515 259.276 901.625 260.29 902.465 261.562C903.305 262.822 903.911 264.22 904.283 265.756C904.667 267.292 904.859 268.84 904.859 270.4C904.859 271.96 904.667 273.508 904.283 275.044C903.911 276.58 903.305 277.984 902.465 279.256C901.625 280.516 900.515 281.53 899.135 282.298C897.755 283.054 896.069 283.432 894.077 283.432ZM894.077 279.976C895.373 279.976 896.465 279.682 897.353 279.094C898.253 278.506 898.979 277.738 899.531 276.79C900.083 275.842 900.479 274.81 900.719 273.694C900.959 272.566 901.079 271.468 901.079 270.4C901.079 269.236 900.959 268.09 900.719 266.962C900.479 265.822 900.083 264.79 899.531 263.866C898.991 262.93 898.271 262.186 897.371 261.634C896.483 261.07 895.385 260.788 894.077 260.788C892.769 260.788 891.665 261.082 890.765 261.67C889.877 262.258 889.157 263.032 888.605 263.992C888.065 264.94 887.669 265.978 887.417 267.106C887.177 268.222 887.057 269.32 887.057 270.4C887.057 271.552 887.177 272.698 887.417 273.838C887.669 274.966 888.065 275.998 888.605 276.934C889.157 277.858 889.877 278.596 890.765 279.148C891.665 279.7 892.769 279.976 894.077 279.976ZM910.336 283V257.8H920.776C922.828 257.8 924.442 258.154 925.618 258.862C926.794 259.57 927.628 260.488 928.12 261.616C928.624 262.744 928.876 263.932 928.876 265.18C928.876 266.152 928.684 267.124 928.3 268.096C927.916 269.068 927.31 269.926 926.482 270.67C925.666 271.414 924.604 271.948 923.296 272.272L928.552 283H924.448L919.408 272.614H913.972V283H910.336ZM913.972 269.212H920.848C921.928 269.212 922.78 269.02 923.404 268.636C924.04 268.24 924.49 267.742 924.754 267.142C925.03 266.53 925.168 265.894 925.168 265.234C925.168 264.634 925.042 264.028 924.79 263.416C924.538 262.792 924.1 262.27 923.476 261.85C922.852 261.418 921.976 261.202 920.848 261.202H913.972V269.212ZM934.559 283V257.8H938.195V270.058L947.951 257.8H952.127L945.071 266.602L954.035 283H949.787L942.587 269.662L938.195 275.08V283H934.559ZM965.429 283.432C963.929 283.432 962.567 283.18 961.343 282.676C960.131 282.16 959.093 281.452 958.229 280.552C957.377 279.652 956.753 278.614 956.357 277.438L959.741 276.196C960.257 277.324 961.013 278.242 962.009 278.95C963.017 279.646 964.187 279.994 965.519 279.994C966.947 279.994 968.087 279.664 968.939 279.004C969.803 278.344 970.235 277.378 970.235 276.106C970.235 275.23 969.977 274.492 969.461 273.892C968.957 273.292 968.285 272.788 967.445 272.38C966.617 271.96 965.717 271.576 964.745 271.228C963.857 270.904 962.963 270.55 962.063 270.166C961.163 269.77 960.347 269.296 959.615 268.744C958.883 268.192 958.289 267.514 957.833 266.71C957.389 265.906 957.167 264.934 957.167 263.794C957.167 262.63 957.479 261.562 958.103 260.59C958.739 259.618 959.651 258.838 960.839 258.25C962.027 257.662 963.461 257.368 965.141 257.368C966.521 257.368 967.733 257.584 968.777 258.016C969.833 258.436 970.703 259.018 971.387 259.762C972.071 260.494 972.545 261.328 972.809 262.264L969.497 263.362C969.185 262.642 968.645 262.03 967.877 261.526C967.121 261.022 966.131 260.77 964.907 260.77C963.659 260.77 962.675 261.04 961.955 261.58C961.247 262.12 960.893 262.864 960.893 263.812C960.893 264.508 961.133 265.096 961.613 265.576C962.093 266.044 962.723 266.458 963.503 266.818C964.295 267.178 965.153 267.526 966.077 267.862C967.001 268.198 967.925 268.582 968.849 269.014C969.773 269.434 970.619 269.95 971.387 270.562C972.167 271.174 972.791 271.93 973.259 272.83C973.727 273.718 973.961 274.792 973.961 276.052C973.961 277.624 973.583 278.962 972.827 280.066C972.083 281.158 971.069 281.992 969.785 282.568C968.501 283.144 967.049 283.432 965.429 283.432ZM984.257 283V261.292H977.201V257.8H994.967V261.292H987.893V283H984.257ZM994.248 283L1003.39 257.8H1006.81L1015.97 283H1012.18L1010.07 277.114H1000.19L998.118 283H994.248ZM1001.3 273.856H1008.9L1005.89 265.378C1005.81 265.15 1005.72 264.892 1005.62 264.604C1005.53 264.304 1005.43 264.01 1005.34 263.722C1005.24 263.434 1005.17 263.182 1005.12 262.966C1005.06 263.182 1004.98 263.434 1004.89 263.722C1004.8 264.01 1004.71 264.304 1004.62 264.604C1004.52 264.892 1004.43 265.15 1004.35 265.378L1001.3 273.856ZM1022.3 283V261.292H1015.24V257.8H1033.01V261.292H1025.93V283H1022.3ZM1037.99 283V257.8H1041.62V283H1037.99ZM1057.94 283.432C1055.95 283.432 1054.26 283.054 1052.88 282.298C1051.5 281.53 1050.39 280.516 1049.55 279.256C1048.71 277.984 1048.1 276.58 1047.72 275.044C1047.33 273.508 1047.14 271.96 1047.14 270.4C1047.14 268.84 1047.33 267.292 1047.72 265.756C1048.1 264.22 1048.71 262.822 1049.55 261.562C1050.39 260.29 1051.5 259.276 1052.88 258.52C1054.26 257.752 1055.95 257.368 1057.94 257.368C1059.93 257.368 1061.62 257.752 1063 258.52C1064.38 259.276 1065.49 260.29 1066.33 261.562C1067.17 262.822 1067.77 264.22 1068.15 265.756C1068.53 267.292 1068.72 268.84 1068.72 270.4C1068.72 271.96 1068.53 273.508 1068.15 275.044C1067.77 276.58 1067.17 277.984 1066.33 279.256C1065.49 280.516 1064.38 281.53 1063 282.298C1061.62 283.054 1059.93 283.432 1057.94 283.432ZM1057.94 279.976C1059.24 279.976 1060.33 279.682 1061.22 279.094C1062.12 278.506 1062.84 277.738 1063.39 276.79C1063.95 275.842 1064.34 274.81 1064.58 273.694C1064.82 272.566 1064.94 271.468 1064.94 270.4C1064.94 269.236 1064.82 268.09 1064.58 266.962C1064.34 265.822 1063.95 264.79 1063.39 263.866C1062.85 262.93 1062.13 262.186 1061.23 261.634C1060.35 261.07 1059.25 260.788 1057.94 260.788C1056.63 260.788 1055.53 261.082 1054.63 261.67C1053.74 262.258 1053.02 263.032 1052.47 263.992C1051.93 264.94 1051.53 265.978 1051.28 267.106C1051.04 268.222 1050.92 269.32 1050.92 270.4C1050.92 271.552 1051.04 272.698 1051.28 273.838C1051.53 274.966 1051.93 275.998 1052.47 276.934C1053.02 277.858 1053.74 278.596 1054.63 279.148C1055.53 279.7 1056.63 279.976 1057.94 279.976ZM1074.2 283V257.8H1077.76L1088.51 274.702C1088.68 274.966 1088.85 275.26 1089.03 275.584C1089.21 275.908 1089.39 276.238 1089.55 276.574C1089.54 276.274 1089.52 275.956 1089.5 275.62C1089.49 275.284 1089.48 274.984 1089.48 274.72V257.8H1093.12V283H1089.72L1078.77 266.026C1078.63 265.774 1078.46 265.486 1078.27 265.162C1078.09 264.838 1077.91 264.526 1077.75 264.226C1077.78 264.502 1077.81 264.802 1077.82 265.126C1077.83 265.45 1077.84 265.75 1077.84 266.026V283H1074.2ZM1107.46 283.432C1105.96 283.432 1104.6 283.18 1103.37 282.676C1102.16 282.16 1101.12 281.452 1100.26 280.552C1099.41 279.652 1098.78 278.614 1098.39 277.438L1101.77 276.196C1102.29 277.324 1103.04 278.242 1104.04 278.95C1105.05 279.646 1106.22 279.994 1107.55 279.994C1108.98 279.994 1110.12 279.664 1110.97 279.004C1111.83 278.344 1112.27 277.378 1112.27 276.106C1112.27 275.23 1112.01 274.492 1111.49 273.892C1110.99 273.292 1110.32 272.788 1109.48 272.38C1108.65 271.96 1107.75 271.576 1106.78 271.228C1105.89 270.904 1104.99 270.55 1104.09 270.166C1103.19 269.77 1102.38 269.296 1101.65 268.744C1100.91 268.192 1100.32 267.514 1099.86 266.71C1099.42 265.906 1099.2 264.934 1099.2 263.794C1099.2 262.63 1099.51 261.562 1100.13 260.59C1100.77 259.618 1101.68 258.838 1102.87 258.25C1104.06 257.662 1105.49 257.368 1107.17 257.368C1108.55 257.368 1109.76 257.584 1110.81 258.016C1111.86 258.436 1112.73 259.018 1113.42 259.762C1114.1 260.494 1114.58 261.328 1114.84 262.264L1111.53 263.362C1111.22 262.642 1110.68 262.03 1109.91 261.526C1109.15 261.022 1108.16 260.77 1106.94 260.77C1105.69 260.77 1104.71 261.04 1103.99 261.58C1103.28 262.12 1102.92 262.864 1102.92 263.812C1102.92 264.508 1103.16 265.096 1103.64 265.576C1104.12 266.044 1104.75 266.458 1105.53 266.818C1106.33 267.178 1107.18 267.526 1108.11 267.862C1109.03 268.198 1109.96 268.582 1110.88 269.014C1111.8 269.434 1112.65 269.95 1113.42 270.562C1114.2 271.174 1114.82 271.93 1115.29 272.83C1115.76 273.718 1115.99 274.792 1115.99 276.052C1115.99 277.624 1115.61 278.962 1114.86 280.066C1114.11 281.158 1113.1 281.992 1111.82 282.568C1110.53 283.144 1109.08 283.432 1107.46 283.432Z" fill="#6C6F85"/>
<path d="M224 72H80C71.2 72 64 79.2 64 88V184C64 192.8 71.2 200 80 200H120V208C120 212.4 123.6 216 128 216H176C180.4 216 184 212.4 184 208V200H224C232.8 200 239.92 192.8 239.92 184L240 88C240 79.2 232.8 72 224 72ZM216 184H88C83.6 184 80 180.4 80 176V96C80 91.6 83.6 88 88 88H216C220.4 88 224 91.6 224 96V176C224 180.4 220.4 184 216 184Z" fill="#4C4F69"/>
<path d="M131.078 159.555C138.878 159.555 145.2 153.232 145.2 145.433C145.2 137.634 138.878 131.311 131.078 131.311C123.279 131.311 116.957 137.634 116.957 145.433C116.957 153.232 123.279 159.555 131.078 159.555Z" fill="#FE640B"/>
<path d="M164.618 170.146C169.492 170.146 173.444 166.195 173.444 161.32C173.444 156.446 169.492 152.494 164.618 152.494C159.743 152.494 155.792 156.446 155.792 161.32C155.792 166.195 159.743 170.146 164.618 170.146Z" fill="#D20F39"/>
<path d="M166.383 141.903C178.082 141.903 187.566 132.419 187.566 120.72C187.566 109.021 178.082 99.5374 166.383 99.5374C154.684 99.5374 145.2 109.021 145.2 120.72C145.2 132.419 154.684 141.903 166.383 141.903Z" fill="#40A02B"/>
<defs>
<filter id="filter0_d_117_35" x="0" y="0" width="1160" height="328" filterUnits="userSpaceOnUse" color-interpolation-filters="sRGB">
<feFlood flood-opacity="0" result="BackgroundImageFix"/>
<feColorMatrix in="SourceAlpha" type="matrix" values="0 0 0 0 0 0 0 0 0 0 0 0 0 0 0 0 0 0 127 0" result="hardAlpha"/>
<feOffset dy="4"/>
<feGaussianBlur stdDeviation="2"/>
<feComposite in2="hardAlpha" operator="out"/>
<feColorMatrix type="matrix" values="0 0 0 0 0 0 0 0 0 0 0 0 0 0 0 0 0 0 0.25 0"/>
<feBlend mode="normal" in2="BackgroundImageFix" result="effect1_dropShadow_117_35"/>
<feBlend mode="normal" in="SourceGraphic" in2="effect1_dropShadow_117_35" result="shape"/>
</filter>
</defs>
</svg>
